<?xml version="1.0" encoding="UTF-8"?>
<svg xmlns="http://www.w3.org/2000/svg" xmlns:xlink="http://www.w3.org/1999/xlink" width="49px" height="49px" viewBox="0 0 49 49" version="1.1">
<g id="surface1">
<path style=" stroke:none;fill-rule:nonzero;fill:rgb(0%,0%,0%);fill-opacity:1;" d="M 27.832031 49.097656 C 18.554688 49.097656 9.328125 49.097656 0.0976562 49.097656 C 0.0976562 32.765625 0.0976562 16.429688 0.0976562 0.0976562 C 16.429688 0.0976562 32.765625 0.0976562 49.097656 0.0976562 C 49.097656 16.429688 49.097656 32.765625 49.097656 49.097656 C 42.027344 49.097656 34.953125 49.097656 27.832031 49.097656 M 19.214844 31.003906 C 18.527344 31.003906 17.835938 31.003906 17.058594 31.003906 C 17.871094 29.683594 18.617188 28.472656 19.398438 27.214844 C 18.054688 27.214844 16.792969 27.214844 15.515625 27.214844 C 15.515625 27.53125 15.515625 27.828125 15.515625 28.183594 C 16.164062 28.183594 16.785156 28.183594 17.472656 28.183594 C 16.679688 29.472656 15.933594 30.683594 15.167969 31.925781 C 16.558594 31.925781 17.886719 31.925781 19.230469 31.925781 C 19.25 31.585938 19.265625 31.265625 19.363281 30.929688 C 19.890625 32.066406 20.601562 32.3125 21.71875 31.746094 C 21.910156 31.988281 22.175781 32.023438 22.777344 31.882812 C 22.777344 30.261719 22.777344 28.640625 22.777344 27.015625 C 22.421875 27.015625 22.105469 27.015625 21.753906 27.015625 C 21.753906 27.753906 21.753906 28.460938 21.753906 29.183594 C 20.992188 28.820312 20.4375 28.808594 19.972656 29.164062 C 19.429688 29.582031 19.25 30.144531 19.363281 30.8125 C 19.367188 30.855469 19.316406 30.90625 19.214844 31.003906 M 23.40625 24.316406 C 23.40625 24.09375 23.40625 23.871094 23.40625 23.632812 C 23.183594 23.609375 22.996094 23.59375 22.847656 23.578125 C 22.632812 23.1875 23.089844 22.625 22.3125 22.367188 C 22.835938 22.039062 23.269531 21.726562 23.738281 21.488281 C 24.648438 21.027344 25.578125 20.605469 26.503906 20.175781 C 26.625 20.121094 26.792969 20.066406 26.90625 20.105469 C 27.277344 20.230469 27.636719 20.402344 28.042969 20.574219 C 27.464844 21.164062 26.921875 21.722656 26.378906 22.277344 C 27.230469 22.859375 27.417969 23.117188 27.8125 22.816406 C 27.785156 22.78125 27.765625 22.734375 27.730469 22.707031 C 27.136719 22.261719 27.144531 21.996094 27.765625 21.578125 C 28.078125 21.367188 28.398438 21.171875 28.703125 20.953125 C 29.132812 20.644531 29.136719 20.515625 28.75 20.175781 C 28.414062 19.882812 28.074219 19.601562 27.683594 19.269531 C 28.191406 19.085938 28.628906 18.917969 29.074219 18.777344 C 29.164062 18.746094 29.308594 18.804688 29.394531 18.867188 C 30.449219 19.613281 30.480469 19.609375 31.191406 18.488281 C 31.253906 18.390625 31.335938 18.308594 31.40625 18.222656 C 31.617188 17.96875 31.707031 17.707031 31.453125 17.359375 C 31.28125 17.546875 30.984375 17.722656 30.996094 17.882812 C 31.03125 18.433594 30.636719 18.59375 30.296875 18.867188 C 30.148438 18.730469 30.023438 18.613281 29.914062 18.511719 C 30.117188 18.328125 30.273438 18.085938 30.488281 18.011719 C 30.820312 17.898438 30.691406 17.722656 30.609375 17.570312 C 30.347656 17.074219 29.875 17 29.355469 17.34375 C 28.683594 16.792969 28.054688 16.199219 27.089844 16.234375 C 26.894531 16.242188 26.679688 16.136719 26.5 16.039062 C 26.066406 15.804688 25.832031 15.925781 25.800781 16.515625 C 26.175781 16.535156 26.5625 16.492188 26.917969 16.582031 C 27.449219 16.714844 28.089844 16.722656 28.378906 17.472656 C 27.679688 17.910156 26.980469 18.335938 26.292969 18.789062 C 26.125 18.898438 26.03125 19.109375 25.878906 19.25 C 25.421875 19.675781 24.980469 20.125 24.480469 20.496094 C 24.097656 20.78125 23.640625 20.96875 23.207031 21.175781 C 22.90625 21.316406 22.582031 21.414062 22.132812 21.585938 C 22 22.121094 21.820312 22.839844 21.628906 23.617188 C 21.148438 23.507812 20.578125 23.382812 20.132812 23.90625 C 19.855469 23.371094 19.410156 23.695312 19.046875 23.605469 C 19.046875 24.617188 19.046875 25.585938 19.046875 26.539062 C 19.386719 26.539062 19.691406 26.539062 20.042969 26.539062 C 20.042969 26.050781 19.992188 25.574219 20.0625 25.113281 C 20.097656 24.871094 20.300781 24.511719 20.496094 24.460938 C 20.886719 24.359375 21.328125 24.429688 21.757812 24.429688 C 21.757812 24.828125 21.75 25.1875 21.757812 25.546875 C 21.765625 25.957031 21.859375 26.34375 22.261719 26.535156 C 22.679688 26.734375 23.101562 26.699219 23.503906 26.441406 C 23.4375 26.195312 23.378906 25.976562 23.410156 25.714844 C 23.515625 25.835938 23.621094 25.957031 23.726562 26.078125 C 24.480469 26.941406 25.964844 26.832031 26.464844 25.851562 C 26.132812 25.710938 25.882812 25.398438 25.433594 25.738281 C 25.039062 26.03125 24.5625 25.746094 24.464844 25.21875 C 25.160156 25.21875 25.851562 25.21875 26.539062 25.21875 C 26.574219 24.386719 26.289062 23.878906 25.675781 23.632812 C 24.980469 23.355469 24.191406 23.542969 23.714844 24.101562 C 23.621094 24.207031 23.511719 24.304688 23.40625 24.316406 M 11.859375 26.898438 C 11.859375 27.273438 11.859375 27.644531 11.859375 28.027344 C 12.210938 28.027344 12.53125 28.027344 12.886719 28.027344 C 12.886719 27.730469 12.886719 27.457031 12.886719 27.183594 C 12.886719 26.917969 12.886719 26.652344 12.886719 26.355469 C 14 26.898438 14.578125 26.707031 15.320312 25.59375 C 15.71875 26.433594 16.417969 26.714844 17.285156 26.640625 C 18.203125 26.5625 18.832031 25.898438 18.8125 25.046875 C 18.800781 24.238281 18.132812 23.585938 17.257812 23.523438 C 16.386719 23.464844 15.710938 23.773438 15.320312 24.597656 C 14.605469 23.4375 13.972656 23.234375 12.96875 23.683594 C 12.605469 23.652344 12.246094 23.621094 11.859375 23.585938 C 11.859375 24.714844 11.859375 25.757812 11.859375 26.898438 M 32.492188 28.996094 C 32.394531 28.996094 32.292969 29.011719 32.199219 28.992188 C 31.742188 28.914062 31.484375 29.09375 31.351562 29.542969 C 31.253906 29.871094 31.074219 30.175781 30.917969 30.519531 C 30.625 29.984375 30.476562 29.292969 30.066406 29.058594 C 29.636719 28.808594 28.957031 29 28.386719 28.996094 C 28.304688 28.996094 28.1875 28.964844 28.144531 29.003906 C 27.925781 29.222656 27.734375 29.070312 27.523438 28.992188 C 26.769531 28.71875 25.984375 29.078125 25.679688 29.828125 C 25.417969 30.460938 25.578125 31.230469 26.0625 31.675781 C 26.566406 32.132812 27.125 32.152344 27.929688 31.753906 C 28.242188 32.132812 28.636719 31.867188 29.035156 31.964844 C 29.035156 31.035156 29.035156 30.160156 29.035156 29.140625 C 29.515625 30.035156 29.925781 30.789062 30.328125 31.550781 C 30.453125 31.785156 30.554688 31.96875 30.890625 31.964844 C 31.226562 31.964844 31.335938 31.796875 31.460938 31.558594 C 31.855469 30.804688 32.261719 30.0625 32.664062 29.316406 C 32.695312 29.324219 32.726562 29.335938 32.757812 29.347656 C 32.757812 30.203125 32.757812 31.058594 32.757812 31.925781 C 33.113281 31.925781 33.433594 31.925781 33.769531 31.925781 C 33.769531 30.949219 33.769531 29.996094 33.769531 28.996094 C 33.363281 28.996094 32.976562 28.996094 32.492188 28.996094 M 28.757812 26.457031 C 29.09375 26.503906 29.425781 26.546875 29.789062 26.59375 C 29.789062 25.996094 29.796875 25.492188 29.789062 24.988281 C 29.78125 24.636719 29.863281 24.34375 30.277344 24.351562 C 30.679688 24.363281 30.773438 24.65625 30.773438 25.003906 C 30.769531 25.519531 30.769531 26.035156 30.769531 26.542969 C 31.140625 26.542969 31.449219 26.542969 31.773438 26.542969 C 31.773438 25.8125 31.828125 25.09375 31.746094 24.386719 C 31.710938 24.113281 31.421875 23.78125 31.164062 23.636719 C 30.601562 23.328125 30.09375 23.578125 29.679688 24.007812 C 29.074219 23.421875 28.597656 23.371094 27.886719 23.667969 C 27.523438 23.640625 27.15625 23.613281 26.777344 23.589844 C 26.777344 24.617188 26.777344 25.570312 26.777344 26.535156 C 27.117188 26.535156 27.433594 26.535156 27.785156 26.535156 C 27.785156 25.972656 27.78125 25.4375 27.785156 24.898438 C 27.785156 24.582031 27.902344 24.34375 28.261719 24.347656 C 28.601562 24.355469 28.746094 24.578125 28.75 24.898438 C 28.753906 25.390625 28.753906 25.878906 28.757812 26.457031 M 8.902344 24.070312 C 9.269531 24.277344 9.636719 24.484375 10 24.695312 C 10.238281 24.835938 10.585938 24.988281 10.398438 25.300781 C 10.285156 25.484375 9.90625 25.632812 9.675781 25.597656 C 9.308594 25.546875 8.960938 25.332031 8.566406 25.171875 C 8.414062 25.433594 8.246094 25.722656 8.070312 26.023438 C 8.789062 26.558594 9.546875 26.769531 10.394531 26.585938 C 11.148438 26.425781 11.53125 26.050781 11.636719 25.390625 C 11.734375 24.804688 11.445312 24.300781 10.785156 23.9375 C 10.488281 23.777344 10.15625 23.667969 9.871094 23.484375 C 9.734375 23.394531 9.558594 23.132812 9.597656 23.050781 C 9.675781 22.902344 9.90625 22.734375 10.0625 22.742188 C 10.40625 22.761719 10.742188 22.886719 11.109375 22.972656 C 11.234375 22.722656 11.367188 22.453125 11.496094 22.191406 C 10.9375 21.800781 10.277344 21.648438 9.699219 21.753906 C 8.574219 21.960938 8.140625 23.121094 8.902344 24.070312 M 34.445312 22.980469 C 34.445312 22.53125 34.445312 22.082031 34.445312 21.628906 C 34.066406 21.628906 33.75 21.628906 33.445312 21.628906 C 33.445312 23.289062 33.445312 24.914062 33.445312 26.527344 C 33.789062 26.527344 34.105469 26.527344 34.46875 26.527344 C 34.46875 26.167969 34.46875 25.839844 34.46875 25.371094 C 35.148438 26.183594 35.761719 26.886719 36.921875 26.453125 C 36.410156 25.957031 35.925781 25.484375 35.324219 24.898438 C 35.789062 24.476562 36.246094 24.0625 36.683594 23.667969 C 35.71875 23.339844 35.074219 23.828125 34.445312 24.480469 C 34.445312 24.015625 34.445312 23.546875 34.445312 22.980469 M 37.367188 23.773438 C 36.757812 24.1875 36.507812 24.765625 36.683594 25.464844 C 36.847656 26.125 37.328125 26.527344 37.992188 26.625 C 38.707031 26.730469 39.335938 26.550781 39.800781 25.875 C 39.535156 25.742188 39.304688 25.625 39.078125 25.511719 C 39.078125 25.5625 39.078125 25.613281 39.078125 25.664062 C 38.730469 25.695312 38.378906 25.769531 38.039062 25.738281 C 37.910156 25.726562 37.800781 25.480469 37.679688 25.339844 C 37.707031 25.300781 37.738281 25.265625 37.765625 25.226562 C 38.105469 25.226562 38.445312 25.226562 38.785156 25.226562 C 39.132812 25.226562 39.484375 25.226562 39.828125 25.226562 C 39.839844 23.796875 38.734375 23.144531 37.367188 23.773438 M 24.222656 30.574219 C 24.300781 29.832031 24.527344 29.699219 25.386719 29.898438 C 25.515625 29.636719 25.652344 29.367188 25.785156 29.097656 C 25.191406 28.757812 24.714844 28.914062 24.300781 29.292969 C 24.011719 28.742188 23.574219 29.105469 23.234375 28.996094 C 23.234375 30.015625 23.234375 30.96875 23.234375 31.917969 C 23.578125 31.917969 23.894531 31.917969 24.222656 31.917969 C 24.222656 31.476562 24.222656 31.070312 24.222656 30.574219 M 33.984375 28.148438 C 34.191406 28.03125 34.398438 27.910156 34.632812 27.773438 C 34.4375 27.527344 34.273438 27.320312 34.097656 27.101562 C 33.679688 27.46875 33.3125 27.785156 32.921875 28.125 C 33.042969 28.289062 33.148438 28.421875 33.257812 28.566406 C 33.503906 28.429688 33.714844 28.3125 33.984375 28.148438 Z M 33.984375 28.148438 "/>
<path style=" stroke:none;fill-rule:nonzero;fill:rgb(96.862745%,96.862745%,96.862745%);fill-opacity:1;" d="M 23.320312 25.757812 C 23.378906 25.976562 23.4375 26.195312 23.503906 26.441406 C 23.101562 26.699219 22.679688 26.734375 22.261719 26.535156 C 21.859375 26.34375 21.765625 25.957031 21.757812 25.546875 C 21.75 25.1875 21.757812 24.828125 21.757812 24.429688 C 21.328125 24.429688 20.886719 24.359375 20.496094 24.460938 C 20.300781 24.511719 20.097656 24.871094 20.0625 25.113281 C 19.992188 25.574219 20.042969 26.050781 20.042969 26.539062 C 19.691406 26.539062 19.386719 26.539062 19.046875 26.539062 C 19.046875 25.585938 19.046875 24.617188 19.046875 23.605469 C 19.410156 23.695312 19.855469 23.371094 20.132812 23.90625 C 20.578125 23.382812 21.148438 23.507812 21.628906 23.617188 C 21.820312 22.839844 22 22.121094 22.132812 21.585938 C 22.582031 21.414062 22.90625 21.316406 23.207031 21.175781 C 23.640625 20.96875 24.097656 20.78125 24.480469 20.496094 C 24.980469 20.125 25.421875 19.675781 25.878906 19.25 C 26.03125 19.109375 26.125 18.898438 26.292969 18.789062 C 26.980469 18.335938 27.679688 17.910156 28.378906 17.472656 C 28.089844 16.722656 27.449219 16.714844 26.917969 16.582031 C 26.5625 16.492188 26.175781 16.535156 25.800781 16.515625 C 25.832031 15.925781 26.066406 15.804688 26.5 16.039062 C 26.679688 16.136719 26.894531 16.242188 27.089844 16.234375 C 28.054688 16.199219 28.683594 16.792969 29.355469 17.34375 C 29.875 17 30.347656 17.074219 30.609375 17.570312 C 30.691406 17.722656 30.820312 17.898438 30.488281 18.011719 C 30.273438 18.085938 30.117188 18.328125 29.914062 18.511719 C 30.023438 18.613281 30.148438 18.730469 30.296875 18.867188 C 30.636719 18.59375 31.03125 18.433594 30.996094 17.882812 C 30.984375 17.722656 31.28125 17.546875 31.453125 17.359375 C 31.707031 17.707031 31.617188 17.96875 31.40625 18.222656 C 31.335938 18.308594 31.253906 18.390625 31.191406 18.488281 C 30.480469 19.609375 30.449219 19.613281 29.394531 18.867188 C 29.308594 18.804688 29.164062 18.746094 29.074219 18.777344 C 28.628906 18.917969 28.191406 19.085938 27.683594 19.269531 C 28.074219 19.601562 28.414062 19.882812 28.75 20.175781 C 29.136719 20.515625 29.132812 20.644531 28.703125 20.953125 C 28.398438 21.171875 28.078125 21.367188 27.765625 21.578125 C 27.144531 21.996094 27.136719 22.261719 27.730469 22.707031 C 27.765625 22.734375 27.785156 22.78125 27.8125 22.816406 C 27.417969 23.117188 27.230469 22.859375 26.378906 22.277344 C 26.921875 21.722656 27.464844 21.164062 28.042969 20.574219 C 27.636719 20.402344 27.277344 20.230469 26.90625 20.105469 C 26.792969 20.066406 26.625 20.121094 26.503906 20.175781 C 25.578125 20.605469 24.648438 21.027344 23.738281 21.488281 C 23.269531 21.726562 22.835938 22.039062 22.3125 22.367188 C 23.089844 22.625 22.632812 23.1875 22.847656 23.578125 C 22.996094 23.59375 23.183594 23.609375 23.40625 23.632812 C 23.40625 23.871094 23.40625 24.09375 23.414062 24.359375 C 23.417969 24.402344 23.425781 24.394531 23.378906 24.390625 C 23.160156 24.398438 22.988281 24.40625 22.847656 24.414062 C 22.847656 24.859375 22.847656 25.265625 22.847656 25.664062 C 23.042969 25.691406 23.183594 25.710938 23.324219 25.738281 C 23.320312 25.742188 23.320312 25.757812 23.320312 25.757812 Z M 23.320312 25.757812 "/>
<path style=" stroke:none;fill-rule:nonzero;fill:rgb(98.039216%,98.039216%,98.039216%);fill-opacity:1;" d="M 11.859375 26.851562 C 11.859375 25.757812 11.859375 24.714844 11.859375 23.585938 C 12.246094 23.621094 12.605469 23.652344 12.96875 23.683594 C 13.972656 23.234375 14.605469 23.4375 15.320312 24.597656 C 15.710938 23.773438 16.386719 23.464844 17.257812 23.523438 C 18.132812 23.585938 18.800781 24.238281 18.8125 25.046875 C 18.832031 25.898438 18.203125 26.5625 17.285156 26.640625 C 16.417969 26.714844 15.71875 26.433594 15.320312 25.59375 C 14.578125 26.707031 14 26.898438 12.886719 26.355469 C 12.886719 26.652344 12.886719 26.917969 12.886719 27.183594 C 12.886719 27.457031 12.886719 27.730469 12.886719 28.027344 C 12.53125 28.027344 12.210938 28.027344 11.859375 28.027344 C 11.859375 27.644531 11.859375 27.273438 11.859375 26.851562 M 17.011719 25.773438 C 17.554688 25.675781 17.824219 25.359375 17.710938 24.929688 C 17.621094 24.59375 17.402344 24.394531 17.039062 24.398438 C 16.683594 24.402344 16.441406 24.59375 16.378906 24.9375 C 16.300781 25.371094 16.492188 25.664062 17.011719 25.773438 M 12.941406 25.410156 C 13.140625 25.726562 13.417969 25.851562 13.777344 25.726562 C 14.132812 25.605469 14.320312 25.210938 14.191406 24.847656 C 14.050781 24.464844 13.75 24.339844 13.367188 24.414062 C 12.976562 24.496094 12.820312 24.832031 12.941406 25.410156 Z M 12.941406 25.410156 "/>
<path style=" stroke:none;fill-rule:nonzero;fill:rgb(97.647059%,97.647059%,97.647059%);fill-opacity:1;" d="M 32.539062 28.996094 C 32.976562 28.996094 33.363281 28.996094 33.769531 28.996094 C 33.769531 29.996094 33.769531 30.949219 33.769531 31.925781 C 33.433594 31.925781 33.113281 31.925781 32.757812 31.925781 C 32.757812 31.058594 32.757812 30.203125 32.757812 29.347656 C 32.726562 29.335938 32.695312 29.324219 32.664062 29.316406 C 32.261719 30.0625 31.855469 30.804688 31.460938 31.558594 C 31.335938 31.796875 31.226562 31.964844 30.890625 31.964844 C 30.554688 31.96875 30.453125 31.785156 30.328125 31.550781 C 29.925781 30.789062 29.515625 30.035156 29.035156 29.140625 C 29.035156 30.160156 29.035156 31.035156 29.035156 31.964844 C 28.636719 31.867188 28.242188 32.132812 27.929688 31.753906 C 27.125 32.152344 26.566406 32.132812 26.0625 31.675781 C 25.578125 31.230469 25.417969 30.460938 25.679688 29.828125 C 25.984375 29.078125 26.769531 28.71875 27.523438 28.992188 C 27.734375 29.070312 27.925781 29.222656 28.144531 29.003906 C 28.1875 28.964844 28.304688 28.996094 28.386719 28.996094 C 28.957031 29 29.636719 28.808594 30.066406 29.058594 C 30.476562 29.292969 30.625 29.984375 30.917969 30.519531 C 31.074219 30.175781 31.253906 29.871094 31.351562 29.542969 C 31.484375 29.09375 31.742188 28.914062 32.199219 28.992188 C 32.292969 29.011719 32.394531 28.996094 32.539062 28.996094 M 26.65625 30.59375 C 26.730469 30.941406 26.949219 31.175781 27.296875 31.144531 C 27.511719 31.128906 27.816406 30.996094 27.890625 30.828125 C 27.988281 30.617188 27.980469 30.261719 27.855469 30.074219 C 27.746094 29.90625 27.410156 29.796875 27.1875 29.816406 C 26.824219 29.851562 26.644531 30.140625 26.65625 30.59375 Z M 26.65625 30.59375 "/>
<path style=" stroke:none;fill-rule:nonzero;fill:rgb(96.862745%,96.862745%,96.862745%);fill-opacity:1;" d="M 19.285156 30.945312 C 19.265625 31.265625 19.25 31.585938 19.230469 31.925781 C 17.886719 31.925781 16.558594 31.925781 15.167969 31.925781 C 15.933594 30.683594 16.679688 29.472656 17.472656 28.183594 C 16.785156 28.183594 16.164062 28.183594 15.515625 28.183594 C 15.515625 27.828125 15.515625 27.53125 15.515625 27.214844 C 16.792969 27.214844 18.054688 27.214844 19.398438 27.214844 C 18.617188 28.472656 17.871094 29.683594 17.058594 31.003906 C 17.835938 31.003906 18.527344 31.003906 19.253906 30.976562 C 19.289062 30.949219 19.285156 30.945312 19.285156 30.945312 Z M 19.285156 30.945312 "/>
<path style=" stroke:none;fill-rule:nonzero;fill:rgb(98.039216%,98.039216%,98.039216%);fill-opacity:1;" d="M 28.757812 26.414062 C 28.753906 25.878906 28.753906 25.390625 28.75 24.898438 C 28.746094 24.578125 28.601562 24.355469 28.261719 24.347656 C 27.902344 24.34375 27.785156 24.582031 27.785156 24.898438 C 27.78125 25.4375 27.785156 25.972656 27.785156 26.535156 C 27.433594 26.535156 27.117188 26.535156 26.777344 26.535156 C 26.777344 25.570312 26.777344 24.617188 26.777344 23.589844 C 27.15625 23.613281 27.523438 23.640625 27.886719 23.667969 C 28.597656 23.371094 29.074219 23.421875 29.679688 24.007812 C 30.09375 23.578125 30.601562 23.328125 31.164062 23.636719 C 31.421875 23.78125 31.710938 24.113281 31.746094 24.386719 C 31.828125 25.09375 31.773438 25.8125 31.773438 26.542969 C 31.449219 26.542969 31.140625 26.542969 30.769531 26.542969 C 30.769531 26.035156 30.769531 25.519531 30.773438 25.003906 C 30.773438 24.65625 30.679688 24.363281 30.277344 24.351562 C 29.863281 24.34375 29.78125 24.636719 29.789062 24.988281 C 29.796875 25.492188 29.789062 25.996094 29.789062 26.59375 C 29.425781 26.546875 29.09375 26.503906 28.757812 26.414062 Z M 28.757812 26.414062 "/>
<path style=" stroke:none;fill-rule:nonzero;fill:rgb(96.078432%,96.078432%,96.078432%);fill-opacity:1;" d="M 19.289062 30.949219 C 19.316406 30.90625 19.367188 30.855469 19.363281 30.8125 C 19.25 30.144531 19.429688 29.582031 19.972656 29.164062 C 20.4375 28.808594 20.992188 28.820312 21.753906 29.183594 C 21.753906 28.460938 21.753906 27.753906 21.753906 27.015625 C 22.105469 27.015625 22.421875 27.015625 22.777344 27.015625 C 22.777344 28.640625 22.777344 30.261719 22.777344 31.882812 C 22.175781 32.023438 21.910156 31.988281 21.71875 31.746094 C 20.601562 32.3125 19.890625 32.066406 19.324219 30.9375 C 19.285156 30.945312 19.289062 30.949219 19.289062 30.949219 M 21.273438 29.800781 C 20.910156 29.75 20.574219 29.851562 20.5 30.214844 C 20.453125 30.460938 20.527344 30.828125 20.695312 30.988281 C 20.839844 31.128906 21.230469 31.144531 21.441406 31.054688 C 21.949219 30.839844 21.882812 30.179688 21.273438 29.800781 Z M 21.273438 29.800781 "/>
<path style=" stroke:none;fill-rule:nonzero;fill:rgb(97.647059%,97.647059%,97.647059%);fill-opacity:1;" d="M 8.878906 24.046875 C 8.140625 23.121094 8.574219 21.960938 9.699219 21.753906 C 10.277344 21.648438 10.9375 21.800781 11.496094 22.191406 C 11.367188 22.453125 11.234375 22.722656 11.109375 22.972656 C 10.742188 22.886719 10.40625 22.761719 10.0625 22.742188 C 9.90625 22.734375 9.675781 22.902344 9.597656 23.050781 C 9.558594 23.132812 9.734375 23.394531 9.871094 23.484375 C 10.15625 23.667969 10.488281 23.777344 10.785156 23.9375 C 11.445312 24.300781 11.734375 24.804688 11.636719 25.390625 C 11.53125 26.050781 11.148438 26.425781 10.394531 26.585938 C 9.546875 26.769531 8.789062 26.558594 8.070312 26.023438 C 8.246094 25.722656 8.414062 25.433594 8.566406 25.171875 C 8.960938 25.332031 9.308594 25.546875 9.675781 25.597656 C 9.90625 25.632812 10.285156 25.484375 10.398438 25.300781 C 10.585938 24.988281 10.238281 24.835938 10 24.695312 C 9.636719 24.484375 9.269531 24.277344 8.878906 24.046875 Z M 8.878906 24.046875 "/>
<path style=" stroke:none;fill-rule:nonzero;fill:rgb(98.823529%,98.823529%,98.823529%);fill-opacity:1;" d="M 34.445312 23.03125 C 34.445312 23.546875 34.445312 24.015625 34.445312 24.480469 C 35.074219 23.828125 35.71875 23.339844 36.683594 23.667969 C 36.246094 24.0625 35.789062 24.476562 35.324219 24.898438 C 35.925781 25.484375 36.410156 25.957031 36.921875 26.453125 C 35.761719 26.886719 35.148438 26.183594 34.46875 25.371094 C 34.46875 25.839844 34.46875 26.167969 34.46875 26.527344 C 34.105469 26.527344 33.789062 26.527344 33.445312 26.527344 C 33.445312 24.914062 33.445312 23.289062 33.445312 21.628906 C 33.75 21.628906 34.066406 21.628906 34.445312 21.628906 C 34.445312 22.082031 34.445312 22.53125 34.445312 23.03125 Z M 34.445312 23.03125 "/>
<path style=" stroke:none;fill-rule:nonzero;fill:rgb(96.862745%,96.862745%,96.862745%);fill-opacity:1;" d="M 23.367188 25.738281 C 23.320312 25.757812 23.320312 25.742188 23.367188 25.738281 C 23.417969 25.285156 23.421875 24.839844 23.425781 24.394531 C 23.425781 24.394531 23.417969 24.402344 23.414062 24.40625 C 23.511719 24.304688 23.621094 24.207031 23.714844 24.101562 C 24.191406 23.542969 24.980469 23.355469 25.675781 23.632812 C 26.289062 23.878906 26.574219 24.386719 26.539062 25.21875 C 25.851562 25.21875 25.160156 25.21875 24.464844 25.21875 C 24.5625 25.746094 25.039062 26.03125 25.433594 25.738281 C 25.882812 25.398438 26.132812 25.710938 26.464844 25.851562 C 25.964844 26.832031 24.480469 26.941406 23.726562 26.078125 C 23.621094 25.957031 23.515625 25.835938 23.367188 25.738281 M 24.710938 24.246094 C 24.625 24.355469 24.539062 24.46875 24.414062 24.628906 C 24.851562 24.628906 25.191406 24.628906 25.550781 24.628906 C 25.425781 24.179688 25.128906 24.15625 24.710938 24.246094 Z M 24.710938 24.246094 "/>
<path style=" stroke:none;fill-rule:nonzero;fill:rgb(97.254902%,97.254902%,97.254902%);fill-opacity:1;" d="M 37.394531 23.753906 C 38.734375 23.144531 39.839844 23.796875 39.828125 25.226562 C 39.484375 25.226562 39.132812 25.226562 38.785156 25.226562 C 38.445312 25.226562 38.105469 25.226562 37.765625 25.226562 C 37.738281 25.265625 37.707031 25.300781 37.679688 25.339844 C 37.800781 25.480469 37.910156 25.726562 38.039062 25.738281 C 38.378906 25.769531 38.730469 25.695312 39.078125 25.664062 C 39.078125 25.613281 39.078125 25.5625 39.078125 25.511719 C 39.304688 25.625 39.535156 25.742188 39.800781 25.875 C 39.335938 26.550781 38.707031 26.730469 37.992188 26.625 C 37.328125 26.527344 36.847656 26.125 36.683594 25.464844 C 36.507812 24.765625 36.757812 24.1875 37.394531 23.753906 M 38.609375 24.667969 C 38.914062 24.65625 38.847656 24.464844 38.707031 24.371094 C 38.546875 24.265625 38.316406 24.191406 38.136719 24.21875 C 37.976562 24.242188 37.839844 24.425781 37.695312 24.539062 C 37.71875 24.582031 37.742188 24.625 37.765625 24.667969 C 38.019531 24.667969 38.269531 24.667969 38.609375 24.667969 Z M 38.609375 24.667969 "/>
<path style=" stroke:none;fill-rule:nonzero;fill:rgb(98.823529%,98.823529%,98.823529%);fill-opacity:1;" d="M 24.222656 30.617188 C 24.222656 31.070312 24.222656 31.476562 24.222656 31.917969 C 23.894531 31.917969 23.578125 31.917969 23.234375 31.917969 C 23.234375 30.96875 23.234375 30.015625 23.234375 28.996094 C 23.574219 29.105469 24.011719 28.742188 24.300781 29.292969 C 24.714844 28.914062 25.191406 28.757812 25.785156 29.097656 C 25.652344 29.367188 25.515625 29.636719 25.386719 29.898438 C 24.527344 29.699219 24.300781 29.832031 24.222656 30.617188 Z M 24.222656 30.617188 "/>
<path style=" stroke:none;fill-rule:nonzero;fill:rgb(95.686275%,95.686275%,95.686275%);fill-opacity:1;" d="M 33.957031 28.171875 C 33.714844 28.3125 33.503906 28.429688 33.257812 28.566406 C 33.148438 28.421875 33.042969 28.289062 32.921875 28.125 C 33.3125 27.785156 33.679688 27.46875 34.097656 27.101562 C 34.273438 27.320312 34.4375 27.527344 34.632812 27.773438 C 34.398438 27.910156 34.191406 28.03125 33.957031 28.171875 Z M 33.957031 28.171875 "/>
<path style=" stroke:none;fill-rule:nonzero;fill:rgb(0%,0%,0%);fill-opacity:1;" d="M 23.378906 24.390625 C 23.421875 24.839844 23.417969 25.285156 23.367188 25.730469 C 23.183594 25.710938 23.042969 25.691406 22.847656 25.664062 C 22.847656 25.265625 22.847656 24.859375 22.847656 24.414062 C 22.988281 24.40625 23.160156 24.398438 23.378906 24.390625 Z M 23.378906 24.390625 "/>
<path style=" stroke:none;fill-rule:nonzero;fill:rgb(3.921569%,3.921569%,3.921569%);fill-opacity:1;" d="M 16.972656 25.769531 C 16.492188 25.664062 16.300781 25.371094 16.378906 24.9375 C 16.441406 24.59375 16.683594 24.402344 17.039062 24.398438 C 17.402344 24.394531 17.621094 24.59375 17.710938 24.929688 C 17.824219 25.359375 17.554688 25.675781 16.972656 25.769531 Z M 16.972656 25.769531 "/>
<path style=" stroke:none;fill-rule:nonzero;fill:rgb(3.529412%,3.529412%,3.529412%);fill-opacity:1;" d="M 12.925781 25.375 C 12.820312 24.832031 12.976562 24.496094 13.367188 24.414062 C 13.75 24.339844 14.050781 24.464844 14.191406 24.847656 C 14.320312 25.210938 14.132812 25.605469 13.777344 25.726562 C 13.417969 25.851562 13.140625 25.726562 12.925781 25.375 Z M 12.925781 25.375 "/>
<path style=" stroke:none;fill-rule:nonzero;fill:rgb(3.921569%,3.921569%,3.921569%);fill-opacity:1;" d="M 26.65625 30.554688 C 26.644531 30.140625 26.824219 29.851562 27.1875 29.816406 C 27.410156 29.796875 27.746094 29.90625 27.855469 30.074219 C 27.980469 30.261719 27.988281 30.617188 27.890625 30.828125 C 27.816406 30.996094 27.511719 31.128906 27.296875 31.144531 C 26.949219 31.175781 26.730469 30.941406 26.65625 30.554688 Z M 26.65625 30.554688 "/>
<path style=" stroke:none;fill-rule:nonzero;fill:rgb(3.529412%,3.529412%,3.529412%);fill-opacity:1;" d="M 21.3125 29.8125 C 21.882812 30.179688 21.949219 30.839844 21.441406 31.054688 C 21.230469 31.144531 20.839844 31.128906 20.695312 30.988281 C 20.527344 30.828125 20.453125 30.460938 20.5 30.214844 C 20.574219 29.851562 20.910156 29.75 21.3125 29.8125 Z M 21.3125 29.8125 "/>
<path style=" stroke:none;fill-rule:nonzero;fill:rgb(13.725491%,13.725491%,13.725491%);fill-opacity:1;" d="M 24.75 24.226562 C 25.128906 24.15625 25.425781 24.179688 25.550781 24.628906 C 25.191406 24.628906 24.851562 24.628906 24.414062 24.628906 C 24.539062 24.46875 24.625 24.355469 24.75 24.226562 Z M 24.75 24.226562 "/>
<path style=" stroke:none;fill-rule:nonzero;fill:rgb(13.725491%,13.725491%,13.725491%);fill-opacity:1;" d="M 38.566406 24.667969 C 38.269531 24.667969 38.019531 24.667969 37.765625 24.667969 C 37.742188 24.625 37.71875 24.582031 37.695312 24.539062 C 37.839844 24.425781 37.976562 24.242188 38.136719 24.21875 C 38.316406 24.191406 38.546875 24.265625 38.707031 24.371094 C 38.847656 24.464844 38.914062 24.65625 38.566406 24.667969 Z M 38.566406 24.667969 "/>
</g>
</svg>
